Coordinates
version=1
nRows=7
nColumns=63
inDegrees=yes

Units are S.I. units (second, meters, Newtons, ...)
If the header above contains a line with 'inDegrees', this indicates whether rotational values are in degrees (yes) or radians (no).

endheader
time	pelvis_tilt	pelvis_list	pelvis_rotation	pelvis_tx	pelvis_ty	pelvis_tz	hip_flexion_r	hip_adduction_r	hip_rotation_r	knee_angle_r	knee_angle_r_beta	ankle_angle_r	subtalar_angle_r	mtp_angle_r	hip_flexion_l	hip_adduction_l	hip_rotation_l	knee_angle_l	knee_angle_l_beta	ankle_angle_l	subtalar_angle_l	mtp_angle_l	L5_S1_Flex_Ext	L5_S1_Lat_Bending	L5_S1_axial_rotation	L4_L5_Flex_Ext	L4_L5_Lat_Bending	L4_L5_axial_rotation	L3_L4_Flex_Ext	L3_L4_Lat_Bending	L3_L4_axial_rotation	L2_L3_Flex_Ext	L2_L3_Lat_Bending	L2_L3_axial_rotation	L1_L2_Flex_Ext	L1_L2_Lat_Bending	L1_L2_axial_rotation	L1_T12_Flex_Ext	L1_T12_Lat_Bending	L1_T12_axial_rotation	Abs_r3	Abs_r2	Abs_r1	Abs_t1	Abs_t2	neck_flexion	neck_bending	neck_rotation	arm_flex_r	arm_add_r	arm_rot_r	elbow_flex_r	pro_sup_r	wrist_flex_r	wrist_dev_r	arm_flex_l	arm_add_l	arm_rot_l	elbow_flex_l	pro_sup_l	wrist_flex_l	wrist_dev_l
      0.00000000	      3.60312394	     -4.37977528	    100.24756352	      0.24863206	      0.74924008	      0.81326114	     -0.59193464	      6.32703481	     -5.70609892	      7.51166122	      0.13110322	     29.22069316	     -3.11568616	      0.00000000	     -0.02456115	     -4.35492233	    -10.79405563	      9.23293118	      0.16114505	     33.87001975	     12.61782388	      0.00000000	     -0.00612014	      0.81255987	     -0.99421070	     -0.01136571	      1.08070463	     -1.05634887	     -0.01005477	      1.97565807	     -1.05634887	     -0.00699470	      1.97565807	     -0.86993437	     -0.00568316	      1.65697209	     -0.80779620	     -0.00349705	      1.25865524	     -0.74565803	     -0.04371552	      9.19183977	     -5.52950167	      0.00000000	      0.00000000	      8.71687260	     -5.43418715	      9.29076507	     16.82350953	    -13.90883635	     74.39224175	     44.55903804	     41.58149041	      0.58866324	      0.97813896	     13.81478583	    -10.30158426	     58.18333290	     42.23052361	     69.40943732	     -2.02401933	     -8.73991765
      0.01694915	      3.54905906	     -4.70277386	    100.23126619	      0.24878503	      0.74822673	      0.81648470	      0.37924776	      6.10844424	     -5.92149369	      8.94710564	      0.15615645	     29.11834271	     -3.92244619	      0.00000000	      0.96854776	     -4.34437485	    -10.83566541	     10.61498689	      0.18526647	     34.56283886	     12.38039601	      0.00000000	     -0.02027526	      0.80009919	     -1.00049944	     -0.03765319	      1.06413192	     -1.06303066	     -0.03331023	      1.94536116	     -1.06303066	     -0.02317260	      1.94536116	     -0.87543701	     -0.01882761	      1.63156226	     -0.81290580	     -0.01158529	      1.23935364	     -0.75037458	     -0.14482419	      9.05088202	     -5.56447774	      0.00000000	      0.00000000	      9.34991839	     -5.15286530	      9.35233156	     16.57574598	    -13.90592669	     73.12602348	     44.60713464	     40.87051043	      0.88230712	      1.38261150	     14.41625602	    -10.35434652	     58.58416102	     42.00282504	     69.53221227	     -1.27001673	     -8.73143559
      0.03389831	      3.69149044	     -5.17667205	    100.35447698	      0.24882084	      0.74704757	      0.81877443	      1.30274183	      6.15204813	     -5.65199239	      9.78412926	      0.17076527	     28.80250784	     -5.19970800	      0.00000000	      2.07954790	     -4.49855082	    -10.69025062	     11.79448826	      0.20585265	     35.19499463	     12.14020767	      0.00000000	      0.01421990	      0.80741943	     -0.99059263	      0.02640777	      1.07386785	     -1.05250467	      0.02336187	      1.96315961	     -1.05250467	      0.01625192	      1.96315961	     -0.86676855	      0.01320459	      1.64648971	     -0.80485651	      0.00812525	      1.25069270	     -0.74294447	      0.10157129	      9.13369012	     -5.50937901	      0.00000000	      0.00000000	      9.92847670	     -5.03070299	      9.18601063	     16.13096716	    -14.02795897	     71.55248602	     44.84765552	     39.09033962	      1.48679034	      2.75993348	     15.07383674	    -10.31073991	     59.51730482	     41.61108780	     69.35513228	      0.03228716	     -8.81563714
      0.05084746	      3.71625700	     -5.27144948	    100.22356468	      0.24908201	      0.74677895	      0.82001294	      1.70006821	      6.12514296	     -5.59122775	     10.40185401	      0.18154660	     28.82512898	     -5.54570615	      0.00000000	      2.43068512	     -4.54156375	    -10.65823478	     12.34893521	      0.21552958	     35.49652762	     11.89708115	      0.00000000	      0.00240633	      0.81269032	     -0.97292436	      0.00446880	      1.08087812	     -1.03373213	      0.00395336	      1.97597523	     -1.03373213	      0.00275020	      1.97597523	     -0.85130881	      0.00223452	      1.65723809	     -0.79050104	      0.00137498	      1.25885730	     -0.72969327	      0.01718818	      9.19331539	     -5.41111339	      0.00000000	      0.00000000	     10.16177007	     -5.10686537	      9.32142061	     16.26520385	    -13.88052098	     71.51187965	     44.48330964	     38.60665485	      1.45945595	      3.06920885	     15.37494713	    -10.10536764	     59.82364013	     41.13892108	     69.18321106	      0.28210939	     -8.64296655
      0.06779661	      3.75145762	     -5.52088782	    100.03849874	      0.24911641	      0.74618945	      0.82049006	      2.17904111	      6.04237715	     -5.70389636	     10.85030274	      0.18937351	     29.14682888	     -5.16443285	      0.00000000	      2.85627139	     -4.48183103	    -10.18071269	     12.73602939	      0.22228565	     35.65673331	     10.96212712	      0.00000000	      0.02659870	      0.81764788	     -0.94424829	      0.04939645	      1.08747169	     -1.00326381	      0.04369901	      1.98802907	     -1.00326381	      0.03039966	      1.98802907	     -0.82621726	      0.02469956	      1.66734757	     -0.76720174	      0.01519850	      1.26653657	     -0.70818622	      0.18999187	      9.24939640	     -5.25162573	      0.00000000	      0.00000000	     10.36975941	     -5.10164146	      9.28543600	     16.34347199	    -13.95108037	     71.62353620	     44.47606501	     38.47667319	      1.44215643	      3.26882851	     15.43991483	    -10.08831407	     60.10914650	     41.21038862	     68.47825125	      0.47903081	     -8.08684642
      0.08474576	      4.00321771	     -5.73128551	     99.87223744	      0.24915646	      0.74587716	      0.82165614	      2.73798871	      6.20237481	     -5.67644073	     11.29202388	      0.19708300	     29.35455217	     -5.10042188	      0.00000000	      3.47938363	     -4.68170548	     -9.66153793	     13.42301318	      0.23427578	     35.93224269	      9.94697622	      0.00000000	      0.03353998	      0.86399985	     -0.89976946	      0.06228710	      1.14911981	     -0.95600505	      0.05510284	      2.10072925	     -0.95600505	      0.03833285	      2.10072925	     -0.78729828	      0.03114523	      1.76186850	     -0.73106268	      0.01916475	      1.33833578	     -0.67482709	      0.23957275	      9.77373916	     -5.00424779	      0.00000000	      0.00000000	     10.92674311	     -5.54437696	     10.05595088	     16.93796105	    -14.15971650	     72.59135917	     44.28479548	     37.29526443	      1.68299799	      3.61767830	     16.02518844	     -9.75320382	     61.16105247	     40.59334417	     67.44117683	      1.46074982	     -8.07217477
      0.10169492	      4.02562489	     -5.77975277	     99.84915583	      0.24920952	      0.74573244	      0.82138028	      2.87583417	      6.20005228	     -5.75384696	     11.42252791	      0.19936072	     29.67932897	     -4.95556727	      0.00000000	      3.57545929	     -4.68228676	     -9.53711481	     13.52663362	      0.23608429	     36.06580540	      9.71233724	      0.00000000	      0.04110062	      0.86697755	     -0.88269054	      0.07632797	      1.15308015	     -0.93785870	      0.06752421	      2.10796922	     -0.93785870	      0.04697390	      2.10796922	     -0.77235422	      0.03816604	      1.76794063	     -0.71718606	      0.02348490	      1.34294823	     -0.66201790	      0.29357763	      9.80742349	     -4.90925996	      0.00000000	      0.00000000	     10.93618728	     -5.53245785	     10.03924194	     16.95848556	    -14.20209978	     72.66360578	     44.25554545	     37.26237435	      1.63149815	      3.64119454	     15.97532661	     -9.72230837	     61.20019405	     40.63551261	     67.20720528	      1.45818142	     -7.94031564
